<svg width="87" height="31" viewBox="0 0 87 31" fill="none" xmlns="http://www.w3.org/2000/svg">
<path d="M9.41345 1.05196C10.6281 1.05196 11.6909 1.21825 12.6019 1.55083C13.5201 1.87618 14.2828 2.31359 14.8902 2.86307C15.4975 3.40532 15.953 4.03072 16.2566 4.73925C16.5675 5.44779 16.723 6.18164 16.723 6.94079C16.723 7.64933 16.5856 8.35063 16.3109 9.04471C16.0361 9.73879 15.6204 10.3786 15.0637 10.9643C14.5142 11.5499 13.8165 12.056 12.9706 12.4826C12.1319 12.9091 11.145 13.2092 10.0099 13.3827C9.98823 13.9105 9.97016 14.3949 9.9557 14.8359C9.94847 15.0239 9.94124 15.2119 9.93401 15.3999C9.92678 15.5879 9.91955 15.7614 9.91232 15.9204C9.91232 16.0723 9.9087 16.206 9.90147 16.3217C9.90147 16.4374 9.90147 16.5169 9.90147 16.5603C9.88701 17.0664 9.82556 17.5942 9.71711 18.1437C9.61589 18.6859 9.46406 19.2173 9.26162 19.7379C9.06641 20.2584 8.82421 20.7501 8.53501 21.2128C8.25304 21.6827 7.92046 22.0912 7.53727 22.4383C7.16131 22.7925 6.73835 23.0709 6.26841 23.2733C5.79846 23.483 5.28513 23.5878 4.72842 23.5878C4.13556 23.5878 3.60415 23.4324 3.1342 23.1215C2.67149 22.8178 2.26299 22.4057 1.90872 21.8852C1.56168 21.3646 1.26525 20.7645 1.01943 20.0849C0.780844 19.4053 0.585634 18.6967 0.433804 17.9593C0.281974 17.2146 0.16991 16.4663 0.0976096 15.7144C0.0325397 14.9625 4.78327e-06 14.2539 4.78327e-06 13.5888C4.78327e-06 12.4464 0.10484 11.3438 0.314509 10.281C0.524179 9.21823 0.824224 8.22411 1.21464 7.29867C1.60506 6.366 2.07863 5.51648 2.63534 4.7501C3.19204 3.98372 3.81744 3.32579 4.51152 2.77631C5.21283 2.22683 5.97198 1.80388 6.78896 1.50745C7.61318 1.20379 8.48801 1.05196 9.41345 1.05196ZM2.90646 13.3068C2.90646 13.6032 2.90646 14.0045 2.90646 14.5106C2.91369 15.0095 2.93538 15.5445 2.97153 16.1156C3.00768 16.6868 3.06552 17.2652 3.14505 17.8508C3.22458 18.4365 3.34026 18.9679 3.49209 19.4451C3.65115 19.915 3.84636 20.3018 4.07772 20.6055C4.31631 20.9019 4.61274 21.0501 4.96701 21.0501C5.33574 21.0501 5.65024 20.9236 5.91052 20.6705C6.1708 20.4103 6.3877 20.0777 6.56122 19.6728C6.73474 19.2607 6.87211 18.798 6.97333 18.2846C7.07455 17.7641 7.15046 17.2435 7.20107 16.723C7.25168 16.2024 7.28422 15.7071 7.29868 15.2372C7.31314 14.76 7.32037 14.3551 7.32037 14.0226V13.5128C6.72028 13.2743 6.24672 13.0646 5.89968 12.8838C5.55987 12.7031 5.3032 12.5296 5.12968 12.3633C4.95616 12.197 4.8441 12.0235 4.79349 11.8427C4.75011 11.6547 4.72842 11.4378 4.72842 11.192C4.72842 11.0619 4.73203 10.9354 4.73926 10.8124C4.74649 10.6823 4.76457 10.5702 4.79349 10.4763C4.82964 10.375 4.87663 10.2955 4.93447 10.2377C4.99954 10.1726 5.0863 10.1401 5.19475 10.1401C5.26705 10.1401 5.33212 10.1545 5.38996 10.1834C5.45503 10.2124 5.53456 10.2521 5.62855 10.3027C5.86714 10.4329 6.08404 10.5413 6.27925 10.6281C6.47446 10.7076 6.64075 10.7727 6.77812 10.8233C6.93718 10.8811 7.08178 10.9245 7.21192 10.9534C7.21192 10.8594 7.21192 10.6751 7.21192 10.4003C7.21915 10.1184 7.24084 9.80025 7.27699 9.44598C7.32037 9.08448 7.38905 8.70852 7.48304 8.3181C7.57703 7.92768 7.7144 7.5698 7.89515 7.24445C8.0759 6.9191 8.31088 6.65159 8.60008 6.44192C8.88928 6.22502 9.24716 6.11657 9.67373 6.11657C9.80387 6.11657 9.93762 6.13103 10.075 6.15995C10.2124 6.18164 10.3353 6.22863 10.4437 6.30093C10.5594 6.366 10.6534 6.45638 10.7257 6.57206C10.8052 6.68774 10.845 6.83595 10.845 7.0167C10.845 7.06731 10.8414 7.10346 10.8341 7.12515C10.8341 7.13961 10.8341 7.1613 10.8341 7.19022L10.1726 9.97738L10.075 10.8341C10.7835 10.7257 11.3945 10.5522 11.9078 10.3136C12.4211 10.075 12.8441 9.79302 13.1767 9.46767C13.5165 9.14232 13.7659 8.78443 13.925 8.39401C14.0913 8.00359 14.1744 7.60233 14.1744 7.19022C14.1744 6.78534 14.0949 6.37323 13.9358 5.95389C13.784 5.52732 13.5165 5.14052 13.1333 4.79348C12.7501 4.44644 12.2368 4.16086 11.5933 3.93673C10.9498 3.7126 10.1401 3.60053 9.16402 3.60053C8.43379 3.60053 7.77224 3.74152 7.17938 4.02349C6.58652 4.29823 6.05874 4.67418 5.59602 5.15136C5.1333 5.62854 4.73203 6.18525 4.39222 6.82149C4.05241 7.45773 3.77044 8.13735 3.54631 8.86035C3.32941 9.57612 3.16674 10.3172 3.05829 11.0836C2.95707 11.8427 2.90646 12.5838 2.90646 13.3068ZM18.469 20.8224C18.0786 20.8224 17.7135 20.6525 17.3737 20.3127C17.0411 19.9656 16.7483 19.5029 16.4952 18.9245C16.2494 18.3461 16.0542 17.6773 15.9096 16.9182C15.7722 16.1518 15.7035 15.3493 15.7035 14.5106C15.7035 13.8671 15.7505 13.1694 15.8445 12.4175C15.9385 11.6584 16.0759 10.8775 16.2566 10.075C16.4374 9.27246 16.6507 8.46631 16.8965 7.65656C17.1495 6.8468 17.4315 6.06957 17.7424 5.32488C18.0605 4.5802 18.4039 3.88612 18.7727 3.24265C19.1414 2.59195 19.5282 2.02801 19.9331 1.55083C20.338 1.06642 20.7609 0.686846 21.2019 0.412106C21.643 0.137367 22.0912 -2.86102e-06 22.5467 -2.86102e-06C22.8576 -2.86102e-06 23.1143 0.072297 23.3167 0.216897C23.5192 0.354267 23.6782 0.538631 23.7939 0.769991C23.9096 1.00135 23.9891 1.26525 24.0325 1.56167C24.0831 1.85087 24.1084 2.1473 24.1084 2.45096C24.1084 3.13058 24.0289 3.82466 23.8698 4.5332C23.718 5.23451 23.5083 5.94305 23.2408 6.65882C22.9805 7.36736 22.6769 8.07951 22.3298 8.79528C21.9828 9.51105 21.6213 10.2232 21.2453 10.9317C20.8694 11.633 20.4898 12.3271 20.1066 13.014C19.7306 13.6936 19.3764 14.3588 19.0438 15.0095C19.0076 15.0818 18.9679 15.1757 18.9245 15.2914C18.8884 15.4071 18.8522 15.5336 18.8161 15.671C18.7799 15.8011 18.7438 15.9421 18.7076 16.094C18.6715 16.2458 18.6425 16.394 18.6208 16.5386V16.6904C18.6208 16.8784 18.6389 17.0628 18.6751 17.2435C18.7184 17.417 18.7691 17.5761 18.8269 17.7207C18.8847 17.8581 18.9462 17.9701 19.0113 18.0569C19.0763 18.1364 19.1378 18.1762 19.1956 18.1762C19.333 18.1762 19.4884 18.1473 19.662 18.0894C19.8427 18.0316 20.0307 17.9557 20.2259 17.8617C20.4283 17.7605 20.6344 17.6484 20.8441 17.5255C21.0537 17.3954 21.2562 17.2652 21.4514 17.1351C21.9069 16.8314 22.3841 16.4808 22.8829 16.0831L23.7722 18.3606C23.1287 18.8233 22.4925 19.2354 21.8635 19.5969C21.5888 19.7487 21.3032 19.9005 21.0067 20.0524C20.7175 20.197 20.4247 20.3271 20.1283 20.4428C19.8319 20.5585 19.5427 20.6525 19.2607 20.7248C18.9787 20.7898 18.7148 20.8224 18.469 20.8224ZM18.4799 12.1464C18.8052 11.568 19.1486 10.9173 19.5101 10.1943C19.8789 9.47128 20.2259 8.72659 20.5512 7.96021C20.8766 7.19384 21.1586 6.43107 21.3972 5.67192C21.6357 4.90554 21.7876 4.19339 21.8526 3.53546C21.8526 3.32579 21.8454 3.14866 21.831 3.00406C21.8237 2.85223 21.7912 2.77631 21.7334 2.77631C21.5237 2.77631 21.2959 2.91368 21.0501 3.18842C20.8115 3.45593 20.5693 3.82105 20.3235 4.28377C20.0849 4.74648 19.8536 5.28512 19.6294 5.89967C19.4125 6.51422 19.2173 7.16853 19.0438 7.86261C18.8703 8.55669 18.7329 9.27246 18.6317 10.0099C18.5305 10.7401 18.4799 11.4523 18.4799 12.1464ZM33.6411 18.1653C33.4749 18.3967 33.2507 18.6678 32.9688 18.9787C32.694 19.2896 32.3831 19.586 32.0361 19.868C31.689 20.15 31.3167 20.3886 30.9191 20.5838C30.5214 20.779 30.1238 20.8766 29.7261 20.8766C29.2489 20.8766 28.8513 20.7248 28.5332 20.4211C28.215 20.1102 27.9403 19.662 27.7089 19.0763C27.5354 19.2788 27.3221 19.4848 27.0691 19.6945C26.816 19.9042 26.5377 20.0958 26.234 20.2693C25.9376 20.4356 25.6267 20.5729 25.3014 20.6814C24.976 20.7898 24.6507 20.8441 24.3253 20.8441C23.9783 20.8441 23.6385 20.7754 23.3059 20.638C22.9805 20.4934 22.6913 20.291 22.4383 20.0307C22.1852 19.7632 21.9828 19.4414 21.831 19.0655C21.6791 18.6823 21.6032 18.2521 21.6032 17.7749C21.6032 17.2327 21.6791 16.676 21.831 16.1048C21.9828 15.5336 22.1925 14.9769 22.46 14.4347C22.7275 13.8852 23.042 13.3682 23.4035 12.8838C23.7722 12.3994 24.1735 11.9765 24.6073 11.615C25.0411 11.2535 25.4966 10.9679 25.9737 10.7582C26.4581 10.5413 26.9498 10.4329 27.4487 10.4329C27.6149 10.4329 27.7451 10.4654 27.8391 10.5305C27.9331 10.5955 28.009 10.6715 28.0668 10.7582C28.1319 10.8378 28.1933 10.9173 28.2512 10.9968C28.309 11.0763 28.3813 11.1342 28.4681 11.1703C28.5548 11.2065 28.6416 11.2318 28.7284 11.2462C28.8224 11.2535 28.9163 11.2571 29.0103 11.2571C29.0899 11.2571 29.1694 11.2571 29.2489 11.2571C29.3357 11.2499 29.4188 11.2462 29.4984 11.2462C29.6068 11.2462 29.708 11.2571 29.802 11.2788C29.896 11.3005 29.9792 11.3475 30.0515 11.4198C30.1238 11.4921 30.178 11.5933 30.2141 11.7234C30.2575 11.8536 30.2792 12.0307 30.2792 12.2548C30.2792 12.6019 30.243 12.9887 30.1707 13.4152C30.0984 13.8346 30.0189 14.2684 29.9322 14.7166C29.8454 15.1577 29.7659 15.6023 29.6936 16.0506C29.6213 16.4916 29.5851 16.9109 29.5851 17.3086C29.5851 17.6484 29.614 17.9159 29.6719 18.1111C29.7369 18.2991 29.8707 18.3931 30.0731 18.3931C30.225 18.3931 30.384 18.3569 30.5503 18.2846C30.7166 18.2051 30.8829 18.1039 31.0492 17.981C31.2227 17.8581 31.3926 17.7207 31.5589 17.5689C31.7324 17.4098 31.8951 17.2471 32.0469 17.0808C32.4012 16.6904 32.7591 16.2494 33.1206 15.7578L33.6411 18.1653ZM24.3795 17.3086C24.3795 17.4893 24.3904 17.6665 24.4121 17.84C24.441 18.0063 24.488 18.1581 24.553 18.2955C24.6181 18.4256 24.7049 18.5341 24.8133 18.6208C24.9218 18.7004 25.0591 18.7401 25.2254 18.7401C25.4929 18.7401 25.7351 18.6244 25.952 18.3931C26.1689 18.1617 26.3569 17.8834 26.516 17.558C26.675 17.2327 26.8016 16.8965 26.8956 16.5494C26.9968 16.2024 27.0619 15.9132 27.0908 15.6818L27.7523 12.4934C27.4559 12.4934 27.1667 12.5693 26.8847 12.7212C26.6027 12.8658 26.3352 13.0646 26.0822 13.3176C25.8364 13.5707 25.6086 13.8599 25.399 14.1852C25.1893 14.5106 25.0085 14.854 24.8567 15.2155C24.7049 15.5698 24.5856 15.9277 24.4988 16.2892C24.4193 16.6507 24.3795 16.9905 24.3795 17.3086ZM37.9141 12.4934C37.9719 12.2476 38.0731 12.0307 38.2177 11.8427C38.3696 11.6475 38.5395 11.4848 38.7274 11.3547C38.9226 11.2246 39.1251 11.1269 39.3348 11.0619C39.5444 10.9968 39.7433 10.9643 39.9312 10.9643C40.1554 10.9643 40.3433 11.0149 40.4952 11.1161C40.647 11.2101 40.7229 11.3619 40.7229 11.5716C40.7229 11.6367 40.7121 11.7126 40.6904 11.7993C40.647 11.9873 40.5928 12.244 40.5277 12.5693C40.4626 12.8947 40.3903 13.2634 40.3108 13.6755C40.2385 14.0876 40.1626 14.525 40.0831 14.9878C40.0035 15.4433 39.9276 15.8987 39.8553 16.3542C39.6746 17.4243 39.4902 18.5738 39.3022 19.8029C39.5191 19.68 39.7541 19.5282 40.0071 19.3474C40.2602 19.1667 40.5422 18.9245 40.8531 18.6208C41.1639 18.3172 41.511 17.9376 41.8942 17.4821C42.2774 17.0194 42.7075 16.4446 43.1847 15.7578L43.7053 18.1653C43.5751 18.3895 43.4052 18.6208 43.1956 18.8594C42.9931 19.0908 42.7654 19.3258 42.5123 19.5643C42.2665 19.7957 42.0062 20.0235 41.7315 20.2476C41.464 20.4645 41.2001 20.6705 40.9398 20.8657C40.3253 21.3285 39.6637 21.7767 38.9552 22.2105C38.8178 22.9841 38.6551 23.7361 38.4672 24.4663C38.2792 25.2037 38.0551 25.8906 37.7948 26.5268C37.5417 27.1703 37.2489 27.7595 36.9163 28.2946C36.591 28.8296 36.2186 29.2887 35.7993 29.6719C35.3872 30.0551 34.9245 30.3515 34.4111 30.5612C33.8978 30.7781 33.3303 30.8865 32.7085 30.8865C32.4627 30.8865 32.1951 30.8612 31.9059 30.8106C31.624 30.76 31.3601 30.6588 31.1143 30.5069C30.8757 30.3551 30.6768 30.1382 30.5178 29.8562C30.3587 29.5743 30.2792 29.1983 30.2792 28.7284C30.2792 28.403 30.3623 28.0343 30.5286 27.6222C30.6949 27.2173 30.9227 26.7871 31.2119 26.3316C31.5011 25.8834 31.8445 25.4134 32.2421 24.9218C32.6398 24.4374 33.07 23.9529 33.5327 23.4685C34.0026 22.9841 34.4907 22.507 34.9968 22.037C35.5101 21.5671 36.027 21.1188 36.5476 20.6922L36.8404 19.6836C36.45 20.0307 36.0415 20.3127 35.6149 20.5296C35.1956 20.7392 34.7871 20.8441 34.3894 20.8441C34.0424 20.8441 33.7026 20.7754 33.37 20.638C33.0447 20.4934 32.7555 20.291 32.5024 20.0307C32.2494 19.7632 32.0469 19.4414 31.8951 19.0655C31.7433 18.6823 31.6674 18.2521 31.6674 17.7749C31.6674 17.1459 31.6963 16.5675 31.7541 16.0397C31.8192 15.5119 31.9096 15.0095 32.0252 14.5323C32.1409 14.0551 32.2855 13.596 32.459 13.155C32.6326 12.7067 32.8314 12.2548 33.0555 11.7993C33.2218 11.474 33.4604 11.2282 33.7713 11.0619C34.0822 10.8884 34.3858 10.8016 34.6823 10.8016C34.9353 10.8016 35.1522 10.8667 35.333 10.9968C35.5137 11.1197 35.6041 11.3149 35.6041 11.5824C35.6041 11.662 35.5932 11.7487 35.5715 11.8427C35.5571 11.9367 35.5282 12.0379 35.4848 12.1464C35.3546 12.479 35.2245 12.873 35.0944 13.3285C34.9715 13.7767 34.8594 14.2395 34.7582 14.7166C34.6642 15.1866 34.5883 15.6493 34.5304 16.1048C34.4726 16.5603 34.4437 16.9616 34.4437 17.3086C34.4437 17.4893 34.4545 17.6665 34.4762 17.84C34.5051 18.0063 34.5521 18.1581 34.6172 18.2955C34.6823 18.4256 34.769 18.5341 34.8775 18.6208C34.9859 18.7004 35.1233 18.7401 35.2896 18.7401C35.5571 18.7401 35.7993 18.6244 36.0162 18.3931C36.2331 18.1617 36.4211 17.8834 36.5801 17.558C36.7392 17.2327 36.8657 16.8965 36.9597 16.5494C37.0609 16.2024 37.126 15.9132 37.1549 15.6818L37.9141 12.4934ZM32.8386 28.8043C33.1423 28.8043 33.4279 28.7139 33.6954 28.5331C33.9701 28.3596 34.2195 28.1283 34.4437 27.8391C34.675 27.5499 34.8847 27.2209 35.0727 26.8522C35.2607 26.4834 35.4269 26.1039 35.5715 25.7135C35.7161 25.3303 35.8391 24.9543 35.9403 24.5856C36.0415 24.2168 36.121 23.8879 36.1789 23.5987C35.8969 23.7867 35.6077 24.0108 35.3113 24.2711C35.0221 24.5313 34.7365 24.8097 34.4545 25.1061C34.1798 25.4098 33.9159 25.7207 33.6628 26.0388C33.417 26.3569 33.2001 26.6606 33.0121 26.9498C32.8242 27.2462 32.6759 27.5209 32.5675 27.774C32.459 28.027 32.4048 28.2367 32.4048 28.403C32.4048 28.6705 32.5494 28.8043 32.8386 28.8043ZM41.6881 6.39854C41.2182 7.25168 40.7988 7.89153 40.4301 8.3181C40.0614 8.74467 39.7613 8.95795 39.53 8.95795C39.2119 8.95795 39.0528 8.59284 39.0528 7.86261C39.0528 7.15407 39.154 6.51783 39.3564 5.95389C39.5589 5.38995 39.8445 4.89108 40.2132 4.45729C40.5747 4.01626 41.0049 3.64391 41.5038 3.34025C42.0099 3.02936 42.5593 2.77631 43.1522 2.5811C43.7523 2.37866 44.3849 2.23045 45.0501 2.13646C45.7152 2.04247 46.3985 1.99547 47.0998 1.99547C47.9168 1.99547 48.7374 2.05693 49.5616 2.17984C50.3858 2.29552 51.1775 2.46181 51.9366 2.67871C52.6958 2.89561 53.4043 3.1595 54.0622 3.47039C54.7202 3.77405 55.2913 4.11386 55.7758 4.48982C56.2674 4.85855 56.6506 5.25981 56.9253 5.69361C57.2073 6.12741 57.3483 6.57929 57.3483 7.04924C57.3483 7.60595 57.2254 8.15542 56.9795 8.69767C56.741 9.23992 56.3614 9.73156 55.8408 10.1726C55.3275 10.6064 54.666 10.9643 53.8562 11.2462C53.0537 11.5282 52.0885 11.68 50.9606 11.7017C51.6764 11.7017 52.3017 11.8174 52.8368 12.0488C53.3718 12.2729 53.82 12.5802 54.1815 12.9706C54.543 13.3538 54.8142 13.7984 54.9949 14.3045C55.1757 14.8106 55.266 15.342 55.266 15.8987C55.266 16.3542 55.2046 16.817 55.0817 17.2869C54.9588 17.7568 54.7744 18.2087 54.5286 18.6425C54.2828 19.0763 53.9755 19.4848 53.6068 19.868C53.238 20.244 52.8042 20.5729 52.3054 20.8549C51.8137 21.1369 51.257 21.3574 50.6352 21.5164C50.0135 21.6827 49.3302 21.7659 48.5855 21.7659C48.1156 21.7659 47.6203 21.7333 47.0998 21.6683C46.5792 21.6104 46.0514 21.5273 45.5164 21.4188C44.9886 21.3176 44.4681 21.1947 43.9547 21.0501C43.4414 20.9055 42.957 20.7501 42.5015 20.5838C42.2991 20.5332 42.1183 20.4573 41.9592 20.356C41.8074 20.2548 41.7315 20.0741 41.7315 19.8138C41.7315 18.6136 41.7604 17.3845 41.8183 16.1265C41.8833 14.8685 42.0099 13.6394 42.1978 12.4392C42.3858 11.239 42.6569 10.0967 43.0112 9.01218C43.3655 7.92045 43.8354 6.9444 44.4211 6.08403C44.9344 5.72976 45.4007 5.55263 45.8201 5.55263C46.3478 5.55263 46.7889 5.84906 47.1431 6.44192C46.8106 6.89018 46.525 7.38905 46.2864 7.93852C46.055 8.488 45.8598 9.0664 45.7008 9.67372C45.5417 10.2738 45.4116 10.8884 45.3103 11.5174C45.2164 12.1464 45.1404 12.7609 45.0826 13.361C45.0465 13.7008 45.0139 14.0623 44.985 14.4455C44.9633 14.8287 44.9416 15.2191 44.9199 15.6168C44.8982 16.0144 44.8802 16.4121 44.8657 16.8097C44.8585 17.2001 44.8549 17.5761 44.8549 17.9376C44.8549 17.9954 44.8549 18.075 44.8549 18.1762C44.8621 18.2774 44.8729 18.3822 44.8874 18.4907C44.9019 18.5991 44.9235 18.7004 44.9525 18.7944C44.9814 18.8811 45.0248 18.9462 45.0826 18.9896C45.5236 19.1342 45.9972 19.2571 46.5033 19.3583C47.0094 19.4595 47.5155 19.5101 48.0216 19.5101C48.6361 19.5101 49.2326 19.4378 49.811 19.2932C50.3894 19.1414 50.9027 18.9064 51.351 18.5883C51.7993 18.2629 52.1571 17.8508 52.4247 17.352C52.6994 16.8459 52.8368 16.2349 52.8368 15.5192C52.8368 15.0998 52.7572 14.7528 52.5982 14.478C52.4391 14.1961 52.2294 13.9611 51.9692 13.7731C51.7161 13.5851 51.4233 13.4369 51.0907 13.3285C50.7654 13.2128 50.4292 13.1116 50.0821 13.0248C49.7423 12.9308 49.4061 12.8405 49.0736 12.7537C48.7482 12.6669 48.4554 12.5585 48.1951 12.4283C47.9421 12.291 47.736 12.1247 47.5769 11.9295C47.4179 11.727 47.3384 11.4668 47.3384 11.1486C47.3384 10.9968 47.3456 10.8667 47.36 10.7582C47.3817 10.6425 47.4251 10.5486 47.4902 10.4763C47.5625 10.404 47.6637 10.3497 47.7938 10.3136C47.9312 10.2774 48.1156 10.2594 48.3469 10.2594C48.6578 10.2594 48.9398 10.2738 49.1928 10.3027C49.4531 10.3244 49.7315 10.3353 50.0279 10.3353C50.722 10.3353 51.3474 10.2521 51.9041 10.0858C52.468 9.91231 52.9452 9.68095 53.3356 9.39175C53.7333 9.10255 54.0369 8.76636 54.2466 8.38317C54.4635 7.99275 54.572 7.57703 54.572 7.136C54.572 6.8468 54.4888 6.5829 54.3225 6.34431C54.1562 6.09849 53.9213 5.88159 53.6176 5.69361C53.3212 5.4984 52.9705 5.3285 52.5656 5.1839C52.1608 5.0393 51.7197 4.92 51.2426 4.82601C50.7654 4.72479 50.2629 4.65249 49.7351 4.60911C49.2073 4.55851 48.6723 4.5332 48.13 4.5332C47.4432 4.5332 46.7636 4.57297 46.0912 4.65249C45.426 4.72479 44.8042 4.84047 44.2258 4.99953C43.6547 5.15136 43.145 5.34657 42.6967 5.58516C42.2557 5.81652 41.9195 6.08765 41.6881 6.39854ZM64.5493 11.1161C64.5493 11.3113 64.5277 11.5788 64.4843 11.9186C64.4409 12.2512 64.3831 12.6199 64.3108 13.0248C64.2457 13.4225 64.1734 13.8346 64.0939 14.2611C64.0143 14.6877 63.9384 15.0854 63.8661 15.4541C63.801 15.8228 63.7468 16.1482 63.7034 16.4301C63.6601 16.7049 63.6384 16.8965 63.6384 17.0049C63.6384 17.2074 63.642 17.3954 63.6492 17.5689C63.6564 17.7352 63.6781 17.8834 63.7143 18.0135C63.7504 18.1364 63.8047 18.234 63.877 18.3063C63.9565 18.3714 64.0685 18.4039 64.2131 18.4039C64.3722 18.4039 64.5638 18.3642 64.7879 18.2846C65.0193 18.2051 65.2615 18.1003 65.5145 17.9701C65.7748 17.8328 66.0387 17.6809 66.3062 17.5146C66.5737 17.3411 66.8268 17.1604 67.0654 16.9724C67.3112 16.7844 67.5317 16.6001 67.7269 16.4193C67.9294 16.2313 68.092 16.0578 68.2149 15.8987C68.2149 16.1373 68.2149 16.3542 68.2149 16.5494C68.2222 16.7447 68.2258 16.9326 68.2258 17.1134C68.2258 17.2869 68.2258 17.4677 68.2258 17.6556C68.233 17.8436 68.2366 18.0533 68.2366 18.2846C68.0776 18.4437 67.8788 18.6136 67.6402 18.7944C67.4088 18.9751 67.1485 19.1559 66.8593 19.3366C66.5774 19.5174 66.2737 19.6909 65.9483 19.8572C65.6302 20.0235 65.3085 20.1717 64.9831 20.3018C64.6578 20.4247 64.3361 20.5259 64.0179 20.6055C63.6998 20.6778 63.4034 20.7139 63.1286 20.7139C62.8539 20.7139 62.6189 20.6597 62.4237 20.5512C62.2285 20.4428 62.0586 20.291 61.914 20.0958C61.7766 19.9005 61.6573 19.6692 61.5561 19.4017C61.4621 19.1269 61.379 18.8233 61.3067 18.4907C61.0464 18.8305 60.7717 19.145 60.4825 19.4342C60.1933 19.7162 59.8968 19.962 59.5932 20.1717C59.2968 20.3813 58.9931 20.5476 58.6822 20.6705C58.3785 20.7862 58.0821 20.8441 57.7929 20.8441C57.5543 20.8441 57.3302 20.8043 57.1205 20.7248C56.9109 20.6452 56.7229 20.5115 56.5566 20.3235C56.3975 20.1355 56.271 19.8897 56.177 19.586C56.083 19.2751 56.036 18.892 56.036 18.4365C56.036 17.8798 56.1011 17.1712 56.2312 16.3109C56.3686 15.4505 56.5349 14.4672 56.7301 13.361C56.7446 13.2526 56.7699 13.108 56.806 12.9272C56.8494 12.7392 56.9036 12.5368 56.9687 12.3199C57.041 12.103 57.1278 11.8825 57.229 11.6584C57.3302 11.4342 57.4495 11.2318 57.5869 11.051C57.7242 10.8703 57.8833 10.7221 58.064 10.6064C58.252 10.4907 58.4617 10.4293 58.6931 10.422C59.0762 10.4365 59.351 10.4871 59.5173 10.5739C59.6836 10.6534 59.7667 10.7546 59.7667 10.8775C59.7016 11.2607 59.6293 11.6873 59.5498 12.1572C59.4775 12.6272 59.4016 13.1007 59.3221 13.5779C59.2425 14.0551 59.1666 14.5214 59.0943 14.9769C59.022 15.4252 58.9569 15.8264 58.8991 16.1807C58.8413 16.535 58.7943 16.8206 58.7581 17.0375C58.7292 17.2544 58.7147 17.3664 58.7147 17.3737C58.7147 17.5038 58.7256 17.6303 58.7473 17.7532C58.7762 17.8689 58.816 17.9737 58.8666 18.0677C58.9172 18.1617 58.9823 18.2376 59.0618 18.2955C59.1413 18.3533 59.2353 18.3822 59.3438 18.3822C59.5028 18.3822 59.6655 18.3425 59.8318 18.2629C59.9981 18.1762 60.1535 18.0569 60.2981 17.9051C60.4499 17.746 60.5837 17.5544 60.6994 17.3303C60.8151 17.0989 60.9018 16.8386 60.9597 16.5494L62.0333 11.0402C62.0695 10.8667 62.2141 10.7221 62.4671 10.6064C62.7274 10.4835 63.0202 10.422 63.3455 10.422C63.7143 10.422 64.0071 10.4871 64.224 10.6172C64.4409 10.7474 64.5493 10.9137 64.5493 11.1161ZM71.642 12.6236C71.1648 12.8549 70.7382 13.1622 70.3623 13.5454C69.9935 13.9213 69.6826 14.3298 69.4296 14.7709C69.1838 15.2119 68.9958 15.6565 68.8656 16.1048C68.7355 16.5531 68.6704 16.9579 68.6704 17.3194C68.6704 17.464 68.6849 17.6086 68.7138 17.7532C68.75 17.8978 68.8114 18.028 68.8982 18.1437C68.9849 18.2593 69.1078 18.3533 69.2669 18.4256C69.426 18.4979 69.632 18.5341 69.8851 18.5341C70.0152 18.5341 70.1417 18.5015 70.2646 18.4365C70.3948 18.3714 70.5177 18.2883 70.6334 18.187C70.7491 18.0786 70.8575 17.9593 70.9587 17.8291C71.0672 17.6918 71.1648 17.5508 71.2515 17.4062C71.454 17.0736 71.6383 16.6977 71.8046 16.2783C71.7829 16.1771 71.7649 16.018 71.7504 15.8011C71.736 15.577 71.7251 15.3312 71.7179 15.0637C71.7106 14.7889 71.7034 14.507 71.6962 14.2178C71.689 13.9286 71.6817 13.6647 71.6745 13.4261C71.6745 13.1875 71.6709 12.9923 71.6637 12.8405C71.6564 12.6886 71.6492 12.6163 71.642 12.6236ZM79.1033 18.6967C78.59 19.0944 78.0839 19.4487 77.585 19.7596C77.3753 19.8897 77.1548 20.0198 76.9235 20.15C76.6921 20.2729 76.4644 20.385 76.2402 20.4862C76.0161 20.5802 75.7956 20.6597 75.5787 20.7248C75.369 20.7826 75.1738 20.8115 74.9931 20.8115C74.8918 20.8115 74.74 20.7898 74.5376 20.7464C74.3424 20.7031 74.1255 20.6163 73.8869 20.4862C73.6555 20.3488 73.4205 20.1536 73.1819 19.9005C72.9506 19.6475 72.7481 19.3113 72.5746 18.892C72.3071 19.1522 72.0215 19.4017 71.7179 19.6403C71.4214 19.8716 71.1106 20.0741 70.7852 20.2476C70.4671 20.4211 70.1417 20.5621 69.8092 20.6705C69.4838 20.7718 69.1548 20.8224 68.8223 20.8224C68.3523 20.8224 67.9438 20.7211 67.5968 20.5187C67.257 20.3163 66.9714 20.0488 66.74 19.7162C66.5159 19.3764 66.346 18.9932 66.2303 18.5666C66.1219 18.14 66.0676 17.699 66.0676 17.2435C66.0676 16.7808 66.1255 16.3145 66.2412 15.8445C66.3641 15.3673 66.5376 14.9082 66.7617 14.4672C66.9931 14.0189 67.2714 13.5996 67.5968 13.2092C67.9221 12.8115 68.2909 12.4609 68.703 12.1572C69.1151 11.8463 69.5633 11.5897 70.0477 11.3872C70.5322 11.1848 71.0491 11.0583 71.5986 11.0077C71.6203 10.0822 71.7034 9.16762 71.848 8.26387C71.9926 7.36013 72.1842 6.49976 72.4228 5.68277C72.6614 4.86578 72.9397 4.11025 73.2579 3.41617C73.5832 2.72209 73.9375 2.122 74.3207 1.6159C74.7039 1.1098 75.1124 0.715766 75.5462 0.433796C75.98 0.144597 76.4282 -2.86102e-06 76.8909 -2.86102e-06C77.2307 -2.86102e-06 77.5199 0.090372 77.7585 0.271122C77.9971 0.444641 78.1887 0.679616 78.3333 0.976046C78.4851 1.26525 78.5936 1.60505 78.6587 1.99547C78.7237 2.37866 78.7563 2.77631 78.7563 3.18842C78.7563 3.44147 78.7454 3.70175 78.7237 3.96926C78.6297 4.98869 78.4562 5.95389 78.2032 6.86487C77.9501 7.76862 77.6537 8.65068 77.3139 9.51105C76.9741 10.3714 76.6053 11.2246 76.2077 12.0705C75.81 12.9164 75.4232 13.7948 75.0473 14.7058C75.0111 14.807 74.975 14.9299 74.9388 15.0745C74.9027 15.2191 74.8665 15.3782 74.8304 15.5517C74.8015 15.718 74.7762 15.8915 74.7545 16.0723C74.7328 16.2458 74.7219 16.4157 74.7219 16.582C74.7219 16.7916 74.7328 16.9905 74.7545 17.1785C74.7834 17.3664 74.8268 17.5363 74.8846 17.6882C74.9425 17.8328 75.0184 17.9484 75.1124 18.0352C75.2136 18.122 75.3365 18.1653 75.4811 18.1653C75.6185 18.1653 75.7667 18.14 75.9257 18.0894C76.092 18.0316 76.2655 17.9557 76.4463 17.8617C76.627 17.7677 76.8078 17.6629 76.9885 17.5472C77.1765 17.4243 77.3573 17.3014 77.5308 17.1785C77.9284 16.8893 78.3442 16.5603 78.778 16.1916L79.1033 18.6967ZM76.7391 4.76094C76.7825 4.25485 76.8042 3.85358 76.8042 3.55715C76.8042 3.16673 76.768 2.89561 76.6957 2.74378C76.6307 2.59195 76.533 2.51603 76.4029 2.51603C76.1715 2.51603 75.9619 2.66425 75.7739 2.96068C75.5859 3.24988 75.4196 3.62222 75.275 4.07771C75.1304 4.5332 75.0039 5.03568 74.8955 5.58516C74.787 6.13464 74.6966 6.66605 74.6243 7.17938C74.552 7.69271 74.4942 8.15542 74.4508 8.56753C74.4074 8.97964 74.3785 9.27246 74.3641 9.44598C74.3351 9.80025 74.3098 10.1437 74.2881 10.4763C74.2737 10.8016 74.2628 11.1016 74.2556 11.3764C74.2484 11.6439 74.2448 11.8789 74.2448 12.0813C74.2448 12.2837 74.2448 12.4392 74.2448 12.5476V12.6561C74.6569 11.7162 75.0364 10.7799 75.3835 9.84724C75.5281 9.44959 75.6727 9.03387 75.8173 8.60007C75.9691 8.15904 76.1065 7.71801 76.2294 7.27698C76.3523 6.83595 76.4571 6.40215 76.5439 5.97558C76.6379 5.54901 76.703 5.14413 76.7391 4.76094ZM77.4006 18.7944C77.4006 18.6353 77.4296 18.5052 77.4874 18.4039C77.5452 18.2955 77.6212 18.1943 77.7152 18.1003C77.8091 18.0063 77.9176 17.9123 78.0405 17.8183C78.1634 17.7171 78.2899 17.5942 78.4201 17.4496L81.7929 12.9164C81.6627 12.8585 81.5507 12.8043 81.4567 12.7537C81.3627 12.7031 81.2759 12.6597 81.1964 12.6236C81.1241 12.5802 81.0482 12.5476 80.9686 12.526C80.8891 12.5043 80.8024 12.4934 80.7084 12.4934C80.477 12.4934 80.2854 12.497 80.1336 12.5043C79.9818 12.5115 79.8516 12.5368 79.7432 12.5802C79.6419 12.6236 79.548 12.6886 79.4612 12.7754C79.3817 12.8621 79.2913 12.9851 79.1901 13.1441C78.9659 13.4912 78.778 13.7478 78.6261 13.9141C78.4743 14.0732 78.3369 14.1527 78.214 14.1527C78.0983 14.1527 78.0152 14.1021 77.9646 14.0009C77.9212 13.8924 77.8995 13.7514 77.8995 13.5779C77.8995 13.5056 77.9031 13.4297 77.9104 13.3502C77.9176 13.2634 77.9284 13.1767 77.9429 13.0899C78.0513 12.4609 78.2068 11.9512 78.4092 11.5607C78.6117 11.1703 78.8358 10.8703 79.0816 10.6606C79.3347 10.4437 79.595 10.2991 79.8625 10.2268C80.1372 10.1473 80.3902 10.1075 80.6216 10.1075C80.7951 10.1075 80.9686 10.1509 81.1422 10.2377C81.3157 10.3172 81.4856 10.4076 81.6519 10.5088C81.8254 10.61 81.9989 10.704 82.1724 10.7908C82.3532 10.8703 82.5376 10.9137 82.7255 10.9209C82.8701 10.9281 83.0003 10.9317 83.116 10.9317C83.2389 10.9317 83.3509 10.9317 83.4521 10.9317C83.7413 10.9317 83.9727 10.9281 84.1462 10.9209C84.3197 10.9064 84.4499 10.892 84.5366 10.8775C84.6306 10.8631 84.6957 10.8522 84.7319 10.845C84.768 10.8305 84.7969 10.8233 84.8186 10.8233C85.0717 10.8233 85.2524 10.9137 85.3609 11.0944C85.4765 11.2679 85.5344 11.5065 85.5344 11.8102C85.5344 12.0054 85.5127 12.2151 85.4693 12.4392C85.4549 12.497 85.3826 12.5729 85.2524 12.6669C85.1223 12.7537 84.9054 12.8368 84.6017 12.9164C84.515 13.0754 84.3704 13.2996 84.1679 13.5888C83.9655 13.878 83.7305 14.1997 83.463 14.554C83.2027 14.9082 82.928 15.2733 82.6388 15.6493C82.3568 16.0253 82.0857 16.3795 81.8254 16.7121C81.5724 17.0375 81.3482 17.3231 81.153 17.5689C80.965 17.8075 80.8385 17.9701 80.7734 18.0569L80.7192 18.2738C80.7264 18.2738 80.7915 18.2991 80.9144 18.3497C81.0373 18.4003 81.1819 18.4582 81.3482 18.5232C81.5145 18.5811 81.688 18.6353 81.8688 18.6859C82.0568 18.7365 82.2194 18.7618 82.3568 18.7618C82.6605 18.7618 82.9352 18.7184 83.181 18.6317C83.4341 18.5377 83.6654 18.422 83.8751 18.2846C84.092 18.1473 84.2908 18.0027 84.4716 17.8508C84.6596 17.6918 84.8367 17.5436 85.003 17.4062C85.1765 17.2688 85.3464 17.1568 85.5127 17.07C85.679 16.976 85.8525 16.929 86.0333 16.929C86.1706 16.929 86.2935 16.9616 86.402 17.0266C86.5177 17.0917 86.6117 17.1748 86.684 17.2761C86.7635 17.3773 86.8213 17.493 86.8575 17.6231C86.9009 17.746 86.9225 17.8689 86.9225 17.9918C86.9225 18.2015 86.843 18.422 86.684 18.6534C86.5249 18.8775 86.3116 19.098 86.0441 19.3149C85.7766 19.5318 85.4657 19.7379 85.1114 19.9331C84.7572 20.1283 84.3848 20.3018 83.9944 20.4536C83.6112 20.5982 83.2172 20.7139 82.8123 20.8007C82.4146 20.8874 82.0387 20.9308 81.6844 20.9308C81.6555 20.9308 81.5796 20.9164 81.4567 20.8874C81.3338 20.8585 81.1711 20.8115 80.9686 20.7464C80.7662 20.6742 80.5312 20.5838 80.2637 20.4753C79.9962 20.3669 79.7034 20.2295 79.3853 20.0632C79.1105 20.15 78.872 20.1934 78.6695 20.1934C78.4526 20.1934 78.2646 20.1572 78.1056 20.0849C77.9465 20.0054 77.8128 19.9005 77.7043 19.7704C77.6031 19.6403 77.5272 19.492 77.4766 19.3258C77.426 19.1595 77.4006 18.9823 77.4006 18.7944Z" fill="#090000"/>
</svg>
